<svg width="64" height="64" viewBox="0 0 64 64" fill="none" xmlns="http://www.w3.org/2000/svg">
<path fill-rule="evenodd" clip-rule="evenodd" d="M8 15.25C7.58579 15.25 7.25 15.5858 7.25 16V52C7.25 52.4142 7.58579 52.75 8 52.75H56C56.4142 52.75 56.75 52.4142 56.75 52V16C56.75 15.5858 56.4142 15.25 56 15.25H8ZM8.75 51.25V16.75H55.25V51.25H8.75ZM52 24.25L12 24.25V25.75L52 25.75V24.25ZM31 32.25H39V33.75H31V32.25ZM51 37.25L31 37.25V38.75L51 38.75L51 37.25ZM31 42.25L46 42.25V43.75L31 43.75V42.25ZM13 31.25C12.5858 31.25 12.25 31.5858 12.25 32V44C12.25 44.4142 12.5858 44.75 13 44.75H25C25.4142 44.75 25.75 44.4142 25.75 44V32C25.75 31.5858 25.4142 31.25 25 31.25H13ZM13.75 43.25V32.75H24.25V43.25H13.75Z" fill="white"/>
</svg>
