<svg width="64" height="64" viewBox="0 0 64 64" fill="none" xmlns="http://www.w3.org/2000/svg">
<path fill-rule="evenodd" clip-rule="evenodd" d="M17.25 13.75C17.25 13.3358 17.5858 13 18 13H46C46.4142 13 46.75 13.3358 46.75 13.75V20.75H45.25V14.5H18.75V20.75H17.25V13.75ZM16.8864 34.75C16.8864 34.3358 17.2222 34 17.6364 34H45.6364C46.0506 34 46.3864 34.3358 46.3864 34.75V49.75C46.3864 50.1642 46.0506 50.5 45.6364 50.5H17.6364C17.2222 50.5 16.8864 50.1642 16.8864 49.75V34.75ZM18.3864 35.5V49H44.8864V35.5H18.3864ZM8 23.75C8 23.3358 8.33579 23 8.75 23H54.75C55.1642 23 55.5 23.3358 55.5 23.75V43.75C55.5 44.1642 55.1642 44.5 54.75 44.5H48V43H54V24.5H9.5V43H15V44.5H8.75C8.33579 44.5 8 44.1642 8 43.75V23.75ZM32.6364 41.5H22.6364V40H32.6364V41.5ZM22.6364 45.5H39.6364V44H22.6364V45.5Z" fill="white"/>
</svg>
