<svg width="32" height="32" viewBox="0 0 32 32" fill="none" xmlns="http://www.w3.org/2000/svg">
<path fill-rule="evenodd" clip-rule="evenodd" d="M10.4583 15.2857V18.2H15.2554C15.0621 19.4495 13.8054 21.8671 10.4583 21.8671C7.57042 21.8671 5.21417 19.4641 5.21417 16.5C5.21417 13.5371 7.57042 11.1329 10.4583 11.1329C12.1017 11.1329 13.2013 11.8371 13.8296 12.4443L16.1254 10.2221C14.6513 8.83786 12.7421 8 10.4583 8C5.78208 8 2 11.8007 2 16.5C2 21.1993 5.78208 25 10.4583 25C15.34 25 18.5795 21.5514 18.5795 16.6943C18.5795 16.1357 18.5179 15.7107 18.4454 15.2857H10.4583V15.2857ZM10.4583 15.2857L31 17.7143H27.375V21.3571H24.9583V17.7143H21.3333V15.2857H24.9583V11.6429H27.375V15.2857H31V17.7143L10.4583 15.2857Z" fill="white"/>
</svg>
