<svg width="32" height="32" viewBox="0 0 32 32" fill="none" xmlns="http://www.w3.org/2000/svg">
<path fill-rule="evenodd" clip-rule="evenodd" d="M11.1059 6C8.29996 6 6 8.29996 6 11.1059V20.6083C6 23.4143 8.29996 25.7143 11.1059 25.7143H20.5702C23.3802 25.7143 25.7143 23.3721 25.7143 20.6083V11.1059C25.7143 8.29996 23.4143 6 20.6083 6H11.1059ZM4 11.1059C4 7.19539 7.19539 4 11.1059 4H20.6083C24.5189 4 27.7143 7.19539 27.7143 11.1059V20.6083C27.7143 24.4848 24.4767 27.7143 20.5702 27.7143H11.1059C7.19539 27.7143 4 24.5189 4 20.6083V11.1059ZM15.8381 11.7243C13.5661 11.7243 11.7243 13.5661 11.7243 15.8381C11.7243 18.11 13.5661 19.9518 15.8381 19.9518C18.11 19.9518 19.9518 18.11 19.9518 15.8381C19.9518 13.5661 18.11 11.7243 15.8381 11.7243ZM9.72433 15.8381C9.72433 12.4615 12.4615 9.72433 15.8381 9.72433C19.2146 9.72433 21.9518 12.4615 21.9518 15.8381C21.9518 19.2146 19.2146 21.9518 15.8381 21.9518C12.4615 21.9518 9.72433 19.2146 9.72433 15.8381ZM23.466 9.19565C23.466 9.88995 22.9032 10.4528 22.2089 10.4528C21.5146 10.4528 20.9517 9.88995 20.9517 9.19565C20.9517 8.50135 21.5146 7.93851 22.2089 7.93851C22.9032 7.93851 23.466 8.50135 23.466 9.19565Z" fill="white"/>
</svg>
