<svg width="64" height="64" viewBox="0 0 64 64" fill="none" xmlns="http://www.w3.org/2000/svg">
<path fill-rule="evenodd" clip-rule="evenodd" d="M31.9558 13.5C26.0187 13.5 21.2058 18.3129 21.2058 24.25C21.2058 30.1871 26.0187 35 31.9558 35C37.8928 35 42.7058 30.1871 42.7058 24.25C42.7058 18.3129 37.8928 13.5 31.9558 13.5ZM19.7058 24.25C19.7058 17.4845 25.1903 12 31.9558 12C38.7213 12 44.2058 17.4845 44.2058 24.25C44.2058 31.0155 38.7213 36.5 31.9558 36.5C25.1903 36.5 19.7058 31.0155 19.7058 24.25ZM19.6216 33.2723C19.9803 33.4794 20.1033 33.9381 19.8961 34.2968L13.42 45.5138L19.0467 43.505C19.2539 43.431 19.4832 43.4518 19.6738 43.5618C19.8644 43.6719 19.9971 43.8601 20.0366 44.0766L21.1103 49.9538L27.5864 38.7368C27.7935 38.3781 28.2522 38.2552 28.6109 38.4623C28.9696 38.6694 29.0925 39.1281 28.8854 39.4868L21.3888 52.4713C21.2316 52.7437 20.9212 52.889 20.6113 52.8353C20.3015 52.7817 20.058 52.5405 20.0015 52.2311L18.7197 45.2145L12.0022 47.6127C11.706 47.7184 11.3754 47.6282 11.174 47.3867C10.9726 47.1452 10.9433 46.8037 11.1005 46.5314L18.5971 33.5468C18.8042 33.1881 19.2629 33.0652 19.6216 33.2723ZM36.6194 38.7368C36.4123 38.3781 35.9536 38.2552 35.5949 38.4623C35.2361 38.6694 35.1132 39.1281 35.3203 39.4868L42.817 52.4713C42.9742 52.7437 43.2846 52.889 43.5944 52.8354C43.9043 52.7817 44.1478 52.5405 44.2043 52.2311L45.4861 45.2145L52.2036 47.6127C52.4997 47.7184 52.8304 47.6282 53.0318 47.3867C53.2332 47.1452 53.2625 46.8037 53.1053 46.5314L45.6087 33.5468C45.4016 33.1881 44.9429 33.0652 44.5842 33.2723C44.2254 33.4794 44.1025 33.9381 44.3096 34.2968L50.7857 45.5138L45.1591 43.505C44.9519 43.431 44.7225 43.4518 44.5319 43.5618C44.3414 43.6719 44.2087 43.8601 44.1692 44.0766L43.0955 49.9538L36.6194 38.7368Z" fill="white"/>
</svg>
