<svg width="64" height="64" viewBox="0 0 64 64" fill="none" xmlns="http://www.w3.org/2000/svg">
<path fill-rule="evenodd" clip-rule="evenodd" d="M46.9265 13.3737C47.2238 13.1779 47.6178 13.218 47.8695 13.4697L49.1687 14.7688L50.5199 16.0681C50.7808 16.319 50.8253 16.7206 50.6255 17.0225L46.1386 23.8051C46.013 23.995 45.808 24.1175 45.5813 24.1382C45.3546 24.1589 45.1307 24.0755 44.9728 23.9116L44.1445 23.0514L37.4849 29.6627L36.4281 28.5982L43.6281 21.4504C43.7707 21.3088 43.9641 21.2304 44.165 21.2327C44.3659 21.2349 44.5574 21.3177 44.6968 21.4624L45.404 22.1968L49.0297 16.7162L48.1237 15.845L48.1132 15.8347L47.2412 14.9627L41.7749 18.5646L42.5055 19.3233C42.789 19.6177 42.7846 20.0848 42.4956 20.3738L35.3477 27.5217L34.2871 26.461L40.9145 19.8336L40.0685 18.955C39.9138 18.7945 39.8387 18.5734 39.8633 18.3519C39.888 18.1303 40.0099 17.9312 40.1961 17.8085L46.9265 13.3737ZM15.0595 43.8423L26.0098 32.8422L24.9467 31.7839L13.4685 43.3144C13.1767 43.6075 13.1772 44.0814 13.4697 44.3738L19.6262 50.5304C19.7671 50.6712 19.9582 50.7503 20.1574 50.75C20.3566 50.7498 20.5475 50.6703 20.6881 50.5292L32.1663 38.9987L31.1033 37.9405L20.1553 48.9382L15.0595 43.8423ZM26.0086 15.4523C24.2587 13.7025 21.8611 13.06 19.5884 13.5262C19.3518 13.5747 19.153 13.7342 19.0544 13.9547C18.9558 14.1752 18.9695 14.4297 19.091 14.6384L21.5654 18.8869L19.4553 20.997L15.1516 18.5645C14.94 18.4449 14.6835 18.4353 14.4635 18.5387C14.2435 18.6421 14.0873 18.8457 14.0444 19.0849C13.6387 21.3453 14.2761 23.7368 16.0262 25.4869C17.9463 27.4071 20.7802 27.9843 23.1949 27.2295L36.7528 40.7875C36.7393 40.8226 36.7261 40.8583 36.7145 40.8933L36.7111 40.9038C35.9502 43.3039 36.5367 46.0496 38.461 47.9739C40.2108 49.7237 42.6084 50.3662 44.8811 49.9C45.1177 49.8514 45.3165 49.6919 45.4151 49.4715C45.5137 49.251 45.5001 48.9965 45.3785 48.7878L42.9041 44.5392L45.0087 42.4346L49.2573 44.909C49.4654 45.0302 49.7191 45.0441 49.9392 44.9464C50.1593 44.8486 50.3191 44.6511 50.3687 44.4154C50.8366 42.1928 50.1935 39.7416 48.4434 37.9915C46.4663 36.0144 43.6707 35.4903 41.2259 36.2498L27.7554 22.6799C28.5623 20.2184 27.9775 17.4212 26.0086 15.4523ZM23.1524 18.6313L20.9673 14.8794C22.4149 14.8627 23.8419 15.407 24.9479 16.513C26.608 18.1731 27.0199 20.5637 26.1928 22.5856C26.0787 22.8644 26.1425 23.1843 26.3547 23.398L40.4938 37.6415C40.7036 37.8528 41.0186 37.92 41.2964 37.8127C43.3382 37.0238 45.7312 37.4007 47.3827 39.0521C48.484 40.1534 49.028 41.6056 49.0165 43.0329L45.2644 40.8476C44.9702 40.6762 44.5974 40.7246 44.3566 40.9654L41.4349 43.8871C41.1941 44.1279 41.1457 44.5007 41.3171 44.7949L43.5023 48.5468C42.0546 48.5635 40.6276 48.0192 39.5216 46.9132C38.0041 45.3957 37.5465 43.2401 38.1391 41.3633C38.1535 41.321 38.1784 41.2617 38.2198 41.1651L38.225 41.153C38.2602 41.0708 38.3101 40.9545 38.3463 40.8459C38.4361 40.5764 38.366 40.2793 38.1651 40.0784L23.9216 25.8349C23.7102 25.6236 23.3935 25.5579 23.1155 25.6678C21.1374 26.4498 18.6921 26.0315 17.0868 24.4262C15.9832 23.3226 15.4357 21.8954 15.4264 20.4429L19.2135 22.5834C19.5068 22.7492 19.8747 22.699 20.1129 22.4608L23.0346 19.5391C23.2754 19.2983 23.3238 18.9255 23.1524 18.6313Z" fill="white"/>
</svg>
