<svg width="32" height="32" viewBox="0 0 32 32" fill="none" xmlns="http://www.w3.org/2000/svg">
<path fill-rule="evenodd" clip-rule="evenodd" d="M8.75 11.8355C8.75 8.46065 10.9427 5.60969 13.9287 4.71869L13.4998 3.28131C9.86937 4.3646 7.25 7.8067 7.25 11.8355V19.7943C7.25 24.7598 11.1806 28.75 16 28.75C18.4408 28.75 20.6158 27.7333 22.1912 26.1174C23.7663 24.5018 24.75 22.2798 24.75 19.7943V11.8355C24.75 7.79753 22.1234 4.42988 18.5124 3.28507L18.0591 4.71493C21.0646 5.6678 23.25 8.46982 23.25 11.8355V19.7943C23.25 21.8744 22.4292 23.7245 21.1171 25.0703C19.8053 26.4158 18.0103 27.25 16 27.25C12.0374 27.25 8.75 23.96 8.75 19.7943V11.8355ZM15.25 9V15H16.75V9H15.25Z" fill="white"/>
</svg>
