<svg width="64" height="64" viewBox="0 0 64 64" fill="none" xmlns="http://www.w3.org/2000/svg">
<path fill-rule="evenodd" clip-rule="evenodd" d="M19.0576 18.25C16.1581 18.25 13.8076 20.6005 13.8076 23.5C13.8076 26.3995 16.1581 28.75 19.0576 28.75C21.9571 28.75 24.3076 26.3995 24.3076 23.5C24.3076 20.6005 21.9571 18.25 19.0576 18.25ZM15.3076 23.5C15.3076 21.4289 16.9865 19.75 19.0576 19.75C21.1287 19.75 22.8076 21.4289 22.8076 23.5C22.8076 25.5711 21.1287 27.25 19.0576 27.25C16.9865 27.25 15.3076 25.5711 15.3076 23.5ZM32.0576 22.25C29.1581 22.25 26.8076 24.6005 26.8076 27.5C26.8076 30.3995 29.1581 32.75 32.0576 32.75C34.9571 32.75 37.3076 30.3995 37.3076 27.5C37.3076 24.6005 34.9571 22.25 32.0576 22.25ZM28.3076 27.5C28.3076 25.4289 29.9865 23.75 32.0576 23.75C34.1287 23.75 35.8076 25.4289 35.8076 27.5C35.8076 29.5711 34.1287 31.25 32.0576 31.25C29.9865 31.25 28.3076 29.5711 28.3076 27.5ZM27.8543 35.9052C29.0305 35.4721 30.2887 35.25 31.5576 35.25C32.8265 35.25 34.0846 35.4721 35.2609 35.9052C36.4371 36.3382 37.5112 36.9749 38.4198 37.7826C39.3286 38.5904 40.0549 39.5542 40.5523 40.6217C41.0499 41.6896 41.3076 42.8378 41.3076 44C41.3076 44.4142 40.9718 44.75 40.5576 44.75H31.5576H22.5576C22.1434 44.75 21.8076 44.4142 21.8076 44C21.8076 42.8378 22.0653 41.6896 22.5629 40.6217C23.0603 39.5542 23.7866 38.5904 24.6954 37.7826C25.604 36.9749 26.678 36.3382 27.8543 35.9052ZM31.5576 36.75C30.4627 36.75 29.3802 36.9418 28.3726 37.3128C27.365 37.6838 26.4547 38.2256 25.6919 38.9037C24.9292 39.5816 24.3296 40.3816 23.9225 41.2553C23.6242 41.8954 23.4329 42.5672 23.3519 43.25H31.5576H39.7633C39.6823 42.5672 39.491 41.8954 39.1927 41.2553C38.7855 40.3816 38.1859 39.5816 37.4233 38.9037C36.6604 38.2256 35.7502 37.6838 34.7426 37.3128C33.735 36.9418 32.6525 36.75 31.5576 36.75ZM45.0576 18.25C42.1581 18.25 39.8076 20.6005 39.8076 23.5C39.8076 26.3995 42.1581 28.75 45.0576 28.75C47.9571 28.75 50.3076 26.3995 50.3076 23.5C50.3076 20.6005 47.9571 18.25 45.0576 18.25ZM41.3076 23.5C41.3076 21.4289 42.9865 19.75 45.0576 19.75C47.1287 19.75 48.8076 21.4289 48.8076 23.5C48.8076 25.5711 47.1287 27.25 45.0576 27.25C42.9865 27.25 41.3076 25.5711 41.3076 23.5ZM19.1396 30.7695C17.815 30.7695 16.5022 31.013 15.2759 31.4871C14.0496 31.9612 12.9321 32.6573 11.9884 33.538C11.0447 34.4189 10.2931 35.4674 9.77922 36.6252C9.26531 37.7832 9 39.0263 9 40.2831C9 40.6974 9.33579 41.0331 9.75 41.0331L19.1396 41.0331H19.7656V39.5331H19.1396L10.5379 39.5331C10.6179 38.7448 10.8236 37.9698 11.1503 37.2337C11.5802 36.265 12.2118 35.3813 13.0119 34.6346C13.8121 33.8878 14.7648 33.2929 15.8168 32.8861C16.8689 32.4794 17.9981 32.2695 19.1396 32.2695C20.2811 32.2695 21.4103 32.4794 22.4624 32.8861C23.209 33.1748 23.9056 33.5582 24.5331 34.0234H26.7757C26.6203 33.8565 26.4586 33.6946 26.2908 33.538C25.3472 32.6573 24.2297 31.9612 23.0033 31.4871C21.777 31.013 20.4643 30.7695 19.1396 30.7695ZM41.5669 31.4871C42.7932 31.013 44.1059 30.7695 45.4306 30.7695C46.7552 30.7695 48.068 31.013 49.2943 31.4871C50.5206 31.9612 51.6381 32.6573 52.5818 33.538C53.5255 34.4189 54.2771 35.4674 54.791 36.6252C55.3049 37.7832 55.5702 39.0263 55.5702 40.2831C55.5702 40.6974 55.2344 41.0331 54.8202 41.0331L45.4306 41.0331H43.5526V39.5331H45.4306L54.0322 39.5331C53.9523 38.7448 53.7466 37.9698 53.4199 37.2337C52.99 36.265 52.3584 35.3813 51.5583 34.6346C50.7581 33.8878 49.8054 33.2929 48.7534 32.8861C47.7013 32.4794 46.572 32.2695 45.4306 32.2695C44.2891 32.2695 43.1598 32.4794 42.1078 32.8861C41.3612 33.1748 40.6646 33.5582 40.0371 34.0234H37.7945C37.9499 33.8565 38.1116 33.6946 38.2794 33.538C39.223 32.6573 40.3405 31.9612 41.5669 31.4871Z" fill="white"/>
</svg>
