<svg width="64" height="64" viewBox="0 0 64 64" fill="none" xmlns="http://www.w3.org/2000/svg">
<path fill-rule="evenodd" clip-rule="evenodd" d="M11.3636 18.7305L13.851 22.1108L17.1331 18.9125L14.1549 16.0138L11.3636 18.7305ZM15.2302 14.9671L18.2077 17.8653L21.2495 14.9011L17.8754 12.3925L15.2302 14.9671ZM18.2083 19.9591L14.7485 23.3305L16.4561 25.6511C16.5059 25.671 16.6181 25.6935 16.8472 25.6511C17.1742 25.5906 17.6117 25.4169 18.1392 25.1187C19.0601 24.5981 20.1275 23.7719 21.1467 22.819L18.2083 19.9591ZM22.2091 21.7599L19.283 18.9119L22.4687 15.8075L24.8317 17.5645C24.8331 17.5691 24.8348 17.5754 24.8364 17.5835C24.8453 17.6276 24.8505 17.7155 24.8228 17.8609C24.7661 18.159 24.5965 18.5725 24.2962 19.0825C23.817 19.8963 23.0755 20.8388 22.2091 21.7599ZM14.1549 13.9205L11.1551 11.0008C11.7529 10.4131 12.3233 9.85616 12.7751 9.42234C12.9607 9.2442 13.1243 9.08868 13.2605 8.96121L16.6562 11.4859L14.1549 13.9205ZM10.087 12.0545L13.0796 14.9671L10.4661 17.5109L7.98645 14.1411C8.13138 13.9965 8.30582 13.8227 8.50233 13.6272C8.94659 13.185 9.50343 12.6318 10.087 12.0545ZM13.6366 8.62279L13.6333 8.62535C13.6356 8.62353 13.6367 8.62273 13.6366 8.62279ZM12.6352 8.46143C12.6131 8.43296 12.594 8.40393 12.5775 8.37482C12.5947 8.40493 12.614 8.43387 12.6352 8.46143ZM13.7159 7.4306C13.6942 7.41227 13.6708 7.39456 13.6456 7.37765C13.406 7.21688 13.1678 7.24892 13.098 7.26085C12.953 7.28565 12.8474 7.34965 12.8307 7.35972L12.8291 7.36073C12.7681 7.39683 12.7153 7.43869 12.6896 7.45927C12.6252 7.51096 12.5442 7.58233 12.4573 7.66125C12.2788 7.82325 12.0292 8.05907 11.7362 8.34035C11.1485 8.90471 10.3669 9.6706 9.58777 10.4392C8.80807 11.2083 8.0286 11.9824 7.4442 12.564C7.15197 12.8548 6.90842 13.0976 6.73791 13.2678L6.53995 13.4654L6.48774 13.5175L6.47433 13.5309L6.47093 13.5343L6.47006 13.5352L6.46984 13.5354C6.46979 13.5355 6.46976 13.5355 6.99999 14.0659L6.46976 13.5355C6.20759 13.7976 6.17621 14.2119 6.39592 14.5104L15.3185 26.636C15.3493 26.6779 15.3844 26.7164 15.4232 26.7511C15.9224 27.1965 16.5679 27.2282 17.12 27.1261C17.6789 27.0227 18.2817 26.7612 18.8774 26.4245C19.9474 25.8196 21.1305 24.8933 22.2227 23.8663L24.3526 25.9394C22.7289 27.6957 21.7382 30.0223 21.7382 32.5819C21.7382 33.6785 21.92 34.7323 22.2556 35.7168C22.1732 35.7689 22.1009 35.8371 22.0434 35.9187L18.003 41.6537C17.7907 41.9551 17.8289 42.366 18.093 42.6231L21.7967 46.228C22.053 46.4775 22.4498 46.5112 22.7446 46.3087L28.4685 42.3761C28.5977 42.2873 28.6945 42.1613 28.7476 42.017C29.7456 42.3358 30.8107 42.508 31.9158 42.508C34.3733 42.508 36.6333 41.6564 38.3962 40.2359L40.4394 42.1299C39.4869 43.1332 38.64 44.1961 38.0746 45.1564C37.7357 45.732 37.47 46.317 37.3669 46.8587C37.2647 47.3956 37.3001 48.0452 37.79 48.522C37.8138 48.5452 37.839 48.5667 37.8656 48.5865L41.1038 50.9941L41.1931 51.0858L41.2079 51.0715L49.947 57.569C49.971 57.5894 49.9971 57.6089 50.0255 57.6275C50.2623 57.7821 50.4953 57.7508 50.5624 57.7396C50.7044 57.7159 50.8084 57.6547 50.8257 57.6445L50.8257 57.6445L50.8275 57.6435C50.8886 57.6082 50.9419 57.5671 50.9683 57.5464C51.0342 57.4948 51.1172 57.4235 51.2068 57.3442C51.3906 57.1814 51.6476 56.9443 51.95 56.6602C52.5569 56.0901 53.3653 55.3136 54.1772 54.5234C54.9892 53.733 55.8078 52.926 56.4351 52.2948C56.7482 51.9797 57.0166 51.7055 57.2136 51.498C57.3115 51.3948 57.396 51.3037 57.4608 51.2302C57.4929 51.1938 57.5248 51.1566 57.5529 51.1213L57.5542 51.1197C57.5719 51.0975 57.6251 51.0308 57.6671 50.949C57.801 50.6884 57.7709 50.3737 57.59 50.1433L48.3307 38.3455C48.3034 38.3107 48.2731 38.2784 48.2401 38.2489C47.7409 37.8035 47.0954 37.7718 46.5433 37.8739C45.9844 37.9773 45.3816 38.2388 44.7859 38.5755C43.737 39.1684 42.5796 40.0701 41.5055 41.0728L39.494 39.2082C41.1088 37.4538 42.0934 35.1336 42.0934 32.5819C42.0934 27.0809 37.5175 22.6558 31.9158 22.6558C29.4656 22.6558 27.2117 23.5024 25.4511 24.9154L23.2842 22.8063C24.2121 21.8218 25.0352 20.7835 25.5887 19.8436C25.9276 19.268 26.1933 18.683 26.2964 18.1413C26.3986 17.6043 26.3632 16.9548 25.8733 16.4779C25.8495 16.4548 25.8243 16.4333 25.7977 16.4135L13.7159 7.4306ZM23.7581 38.5189C24.2855 39.2068 24.9022 39.8254 25.5911 40.3588L26.8771 41.6496L22.4021 44.7241L19.5978 41.9945L22.7554 37.5125L23.7581 38.5189ZM26.5862 39.2323C28.0545 40.3441 29.9023 41.008 31.9158 41.008C36.7276 41.008 40.5934 37.2165 40.5934 32.5819C40.5934 27.9473 36.7276 24.1558 31.9158 24.1558C27.1041 24.1558 23.2382 27.9473 23.2382 32.5819C23.2382 34.4299 23.8529 36.1439 24.8971 37.5369L26.5862 39.2323ZM42.2967 50.0118L45.7879 52.6075L48.4653 50.0015L45.4075 46.9839L42.2967 50.0118ZM47.0071 53.514L49.5332 51.0553L52.5396 54.0221C51.9412 54.6008 51.3742 55.1431 50.9231 55.5668C50.7256 55.7523 50.5523 55.9132 50.4094 56.0437L47.0071 53.514ZM50.6084 50.0089L53.6151 52.976C54.2566 52.3483 54.8756 51.7361 55.3711 51.2374C55.627 50.98 55.848 50.7548 56.0215 50.5743L53.4256 47.2668L50.6084 50.0089ZM46.4827 45.9375L49.5405 48.955L52.4943 46.0801L49.8274 42.682L46.4827 45.9375ZM48.896 41.4953L45.4148 44.8836L42.5987 42.1046C43.5929 41.184 44.6279 40.3879 45.5241 39.8813C46.0516 39.5831 46.4891 39.4094 46.8161 39.3489C47.0554 39.3046 47.1672 39.3311 47.2135 39.3515L48.896 41.4953ZM41.5312 43.1586L44.3397 45.9301L41.0774 49.1053L38.8316 47.4355C38.8302 47.4309 38.8285 47.4246 38.8269 47.4165C38.818 47.3724 38.8128 47.2845 38.8405 47.1391C38.8972 46.841 39.0668 46.4275 39.3671 45.9175C39.8605 45.0797 40.6318 44.1055 41.5312 43.1586ZM34.7778 12.3328C44.432 12.3328 52.1944 19.8593 52.1944 29.3048H50.6944C50.6944 20.7258 43.6421 13.8328 34.7778 13.8328V12.3328ZM46.8072 30.124C46.8072 23.3004 41.065 17.7401 34.1044 17.7401V19.2401C40.2751 19.2401 45.3072 24.1668 45.3072 30.124H46.8072ZM26.8473 34.2664L30.0459 37.3797L31.0921 36.3048L27.8935 33.1915L26.8473 34.2664ZM33.2446 34.2664L30.0459 31.1531L31.0921 30.0782L34.2908 33.1915L33.2446 34.2664ZM56.3798 50.1866C56.3835 50.1819 56.385 50.1798 56.3848 50.18L56.3798 50.1866ZM51.022 56.5308C51.0451 56.5597 51.0651 56.5894 51.0823 56.6191C51.0644 56.5884 51.0442 56.5588 51.022 56.5308Z" fill="white"/>
</svg>
