<svg id="Layer_1" data-name="Layer 1" xmlns="http://www.w3.org/2000/svg" viewBox="0 0 180 21.61"><defs><style>.cls-1{fill:#fff;}.cls-2{fill:#2e88e8;}</style></defs><title>terraweb-logo</title><rect class="cls-1" x="7.6" y="8.12" width="3.58" height="13.42"/><path class="cls-1" d="M18.78,3.65H3.58A3.58,3.58,0,0,1,0,.07H15.2a3.58,3.58,0,0,1,3.58,3.58Z"/><path class="cls-1" d="M40,3.65H27.43A3.58,3.58,0,0,1,23.85.07H36.37A3.58,3.58,0,0,1,40,3.65Z"/><path class="cls-1" d="M35.48,12.6h-8A3.58,3.58,0,0,1,23.85,9h8a3.58,3.58,0,0,1,3.58,3.58Z"/><path class="cls-1" d="M42.63,21.54H27.43A3.58,3.58,0,0,1,23.85,18h15.2a3.58,3.58,0,0,1,3.58,3.58Z"/><path class="cls-2" d="M158.6,3.65H146.08A3.57,3.57,0,0,1,142.51.07H155a3.58,3.58,0,0,1,3.57,3.58Z"/><path class="cls-2" d="M154.13,12.6h-8A3.58,3.58,0,0,1,142.51,9h8.05a3.57,3.57,0,0,1,3.57,3.58Z"/><path class="cls-2" d="M161.29,21.54H146.08A3.57,3.57,0,0,1,142.51,18h15.2a3.58,3.58,0,0,1,3.58,3.58Z"/><polygon class="cls-1" points="102.56 21.54 96.3 8.72 90.33 21.54 86.16 21.54 96.3 0.07 106.73 21.54 102.56 21.54"/><path class="cls-1" d="M56.64,21.54,50.21,10.81h3a3.66,3.66,0,0,0,3.67-3.24,3.59,3.59,0,0,0-3.56-3.92H48.89A3.57,3.57,0,0,1,45.32.07h7.87A7.28,7.28,0,0,1,60.52,7a7.17,7.17,0,0,1-4.34,6.8l4.64,7.73Z"/><path class="cls-1" d="M76.92,21.54,70.48,10.81h3A3.65,3.65,0,0,0,77.2,7.57a3.59,3.59,0,0,0-3.56-3.92H69.17A3.58,3.58,0,0,1,65.59.07h7.87A7.28,7.28,0,0,1,80.79,7a7.16,7.16,0,0,1-4.34,6.8l4.64,7.73Z"/><path class="cls-2" d="M173.81,18h-5.4A3.58,3.58,0,0,0,172,21.54h1.6a6.35,6.35,0,0,0,6.41-6.2,6.2,6.2,0,0,0-1.89-4.53A6.22,6.22,0,0,0,180,6.28,6.36,6.36,0,0,0,173.59.07H164a3.58,3.58,0,0,0,3.58,3.58h6.09a2.76,2.76,0,0,1,2.78,2.5A2.7,2.7,0,0,1,173.74,9h-7.09a3.59,3.59,0,0,0,3.58,3.58h3.41a2.75,2.75,0,0,1,2.78,2.5A2.69,2.69,0,0,1,173.74,18"/><path class="cls-2" d="M123.82,21.61l8.42-17.82A6.51,6.51,0,0,1,138.16,0h0l-8,17.38a7.26,7.26,0,0,1-6.37,4.23Z"/><path class="cls-2" d="M117.89,11.27,116.59,14,111.75,3.79A6.5,6.5,0,0,0,105.84,0l10.75,21.61,6.9-13.89h0A6.21,6.21,0,0,0,117.89,11.27Z"/></svg>