<svg width="64" height="64" viewBox="0 0 64 64" fill="none" xmlns="http://www.w3.org/2000/svg">
<path fill-rule="evenodd" clip-rule="evenodd" d="M39.9272 8.13155C41.4823 7.60762 43.0648 7.25 45 7.25C52.0884 7.25 57.75 12.984 57.75 20.129C57.75 25.1488 54.8775 29.4615 50.7214 31.5904L37.1935 49.9844C37.5466 50.5619 37.75 51.2417 37.75 51.9677C37.75 54.049 36.0786 55.75 34 55.75C31.9214 55.75 30.25 54.049 30.25 51.9677C30.25 49.8864 31.9214 48.1855 34 48.1855C34.802 48.1855 35.5434 48.4387 36.1516 48.8693L48.1298 32.5826C47.0756 32.8603 45.9704 33.0081 44.8333 33.0081C41.3498 33.0081 38.2109 31.6232 35.9192 29.3666L16.1556 46.8916C16.532 47.4818 16.75 48.1838 16.75 48.9355C16.75 51.0168 15.0786 52.7177 13 52.7177C10.9214 52.7177 9.25001 51.0168 9.25001 48.9355C9.25001 46.8542 10.9214 45.1532 13 45.1532C13.7855 45.1532 14.5129 45.3961 15.1138 45.8106L34.9139 28.2532C33.1408 26.0414 32.0833 23.217 32.0833 20.129C32.0833 18.3057 32.4521 16.5638 33.1204 14.9815L13.565 26.5339C13.6851 26.9043 13.75 27.2996 13.75 27.7097C13.75 29.791 12.0786 31.4919 10 31.4919C7.92139 31.4919 6.25 29.791 6.25 27.7097C6.25 25.6284 7.92139 23.9274 10 23.9274C11.1316 23.9274 12.1425 24.4315 12.8287 25.2267L34.6018 12.3641C35.9453 10.5239 37.7581 9.05656 39.8718 8.1527C39.89 8.14492 39.9085 8.13787 39.9272 8.13155ZM37.0444 28.3688L42.6643 23.3855L41.6691 22.2632L36.0376 27.2568C34.4998 25.3126 33.5833 22.8384 33.5833 20.129C33.5833 15.3857 36.392 11.285 40.4345 9.5435C41.8696 9.06208 43.2799 8.75 45 8.75C51.2449 8.75 56.25 13.7973 56.25 20.129C56.25 26.4473 51.0917 31.5081 44.8333 31.5081C41.801 31.5081 39.0611 30.3181 37.0444 28.3688ZM10 25.4274C8.7649 25.4274 7.75 26.4416 7.75 27.7097C7.75 28.9777 8.7649 29.9919 10 29.9919C11.2351 29.9919 12.25 28.9777 12.25 27.7097C12.25 26.4416 11.2351 25.4274 10 25.4274ZM10.75 48.9355C10.75 47.6674 11.7649 46.6532 13 46.6532C14.2351 46.6532 15.25 47.6674 15.25 48.9355C15.25 50.2035 14.2351 51.2177 13 51.2177C11.7649 51.2177 10.75 50.2035 10.75 48.9355ZM34 49.6855C32.7649 49.6855 31.75 50.6997 31.75 51.9677C31.75 53.2358 32.7649 54.25 34 54.25C35.2351 54.25 36.25 53.2358 36.25 51.9677C36.25 50.6997 35.2351 49.6855 34 49.6855Z" fill="white"/>
</svg>
