<svg width="64" height="64" viewBox="0 0 64 64" fill="none" xmlns="http://www.w3.org/2000/svg">
<path fill-rule="evenodd" clip-rule="evenodd" d="M53.3048 10.6988C51.22 8.79099 48.889 7.75 46.9666 7.75V6.25C49.3885 6.25 52.0695 7.5309 54.3296 9.60336C54.337 9.61011 54.3442 9.61701 54.3513 9.62405C56.4651 11.7238 57.75 14.3974 57.75 16.9668H56.25C56.25 14.8889 55.1977 12.5838 53.3048 10.6988ZM45.796 12.4012C47.0436 12.4012 48.5366 13.1051 49.7825 14.3427C49.7929 14.3531 49.8036 14.3631 49.8146 14.3728C51.1663 15.5663 51.7349 17.0261 51.7349 18.2957H53.2349C53.2349 16.581 52.4709 14.7251 50.824 13.2631C49.3964 11.8514 47.552 10.9012 45.796 10.9012V12.4012ZM36.5718 13.1124C36.8643 12.8219 37.3364 12.8219 37.6289 13.1124L43.8624 19.3045L46.9274 16.1149L48.009 17.1542L44.9268 20.3618L51.0068 26.4015C51.1486 26.5423 51.2283 26.7338 51.2283 26.9336C51.2283 27.1333 51.1486 27.3249 51.0068 27.4657C49.4556 29.0066 47.2261 29.4867 44.9676 29.1278C42.7069 28.7685 40.3511 27.5654 38.4113 25.6384C36.4714 23.7115 35.2589 21.37 34.8967 19.1209C34.5346 16.873 35.0195 14.6544 36.5718 13.1124ZM36.3776 18.8824C36.6842 20.7862 37.7292 22.8467 39.4684 24.5742C41.2074 26.3017 43.2831 27.3412 45.203 27.6464C46.8169 27.9029 48.2744 27.6384 49.3659 26.8858L37.1472 14.7482C36.3865 15.8317 36.1194 17.2792 36.3776 18.8824ZM32.9121 23.4667C32.6182 23.1748 32.1418 23.1748 31.8479 23.4667L18.7228 36.5046C18.429 36.7965 18.429 37.2698 18.7228 37.5617L26.4087 45.1965C26.7026 45.4885 27.179 45.4885 27.4729 45.1965L40.598 32.1587C40.8918 31.8667 40.8918 31.3935 40.598 31.1015L32.9121 23.4667ZM20.3191 37.0332L32.38 25.0524L39.0017 31.6301L26.9408 43.6109L20.3191 37.0332ZM17.341 42.748L21.1872 46.5686L22.2443 45.5044L18.3981 41.6838L17.341 42.748ZM15.2209 10.1224C14.9284 9.83184 14.4562 9.83184 14.1637 10.1224L6.47144 17.7636C6.33027 17.9038 6.25061 18.0944 6.25 18.2934C6.24939 18.4924 6.32788 18.6834 6.46819 18.8245L20.0133 32.4458L21.077 31.3881L17.368 27.6583L20.2107 24.8346L23.8627 28.4623L24.9199 27.3982L21.2749 23.7774L24.0569 21.0139L27.7089 24.6417L28.766 23.5775L15.2209 10.1224ZM12.7145 22.9786L16.3103 26.5947L19.1465 23.7774L15.5284 20.1834L12.7145 22.9786ZM22.9926 19.9568L20.2107 22.7203L16.5926 19.1263L19.3746 16.3628L22.9926 19.9568ZM15.5284 18.0691L18.3104 15.3056L14.6923 11.7116L11.9104 14.4751L15.5284 18.0691ZM14.4642 19.1263L11.6568 21.915L8.06094 18.2989L10.8461 15.5322L14.4642 19.1263ZM49.1404 45.5987L52.92 49.3531L50.1081 52.0868L46.3585 48.3621L49.1404 45.5987ZM48.0762 44.5415L44.5418 41.0306L41.7599 43.794L45.2943 47.305L48.0762 44.5415ZM39.749 36.2696L43.4776 39.9734L40.6957 42.7369L36.96 39.026L35.9029 40.0902L39.6314 43.794L36.8266 46.5802L33.1171 42.8499L32.0535 43.9076L45.5986 57.5289C45.8884 57.8202 46.3586 57.8242 46.6532 57.5378L54.5128 49.8966C54.657 49.7563 54.7389 49.564 54.7399 49.3628C54.741 49.1617 54.6612 48.9685 54.5185 48.8267L40.8061 35.2055L39.749 36.2696ZM37.8843 47.6439L40.6957 44.8512L44.2301 48.3621L41.397 51.1764L37.8843 47.6439ZM45.2943 49.4193L42.4547 52.24L46.1393 55.9453L49.0325 53.1326L45.2943 49.4193Z" fill="white"/>
</svg>
