<svg width="64" height="64" viewBox="0 0 64 64" fill="none" xmlns="http://www.w3.org/2000/svg">
<path fill-rule="evenodd" clip-rule="evenodd" d="M4.75 15C4.33578 15 4 15.3358 4 15.75V48.75C4 49.1642 4.33578 49.5 4.75 49.5H58.75C59.1642 49.5 59.5 49.1642 59.5 48.75V15.75C59.5 15.3358 59.1642 15 58.75 15H4.75ZM5.5 48V16.5H58V48H5.5ZM31.75 27.5H41.75V26H31.75V27.5ZM50.75 33.5H31.75V32H50.75V33.5ZM31.75 39.5H46.75V38H31.75V39.5ZM14 27.25C14 24.9028 15.9028 23 18.25 23C20.5972 23 22.5 24.9028 22.5 27.25C22.5 29.5972 20.5972 31.5 18.25 31.5C15.9028 31.5 14 29.5972 14 27.25ZM18.25 24.5C16.7312 24.5 15.5 25.7312 15.5 27.25C15.5 28.7688 16.7312 30 18.25 30C19.7688 30 21 28.7688 21 27.25C21 25.7312 19.7688 24.5 18.25 24.5ZM18.25 33C17.1735 33 16.1065 33.1978 15.1094 33.5833C14.1123 33.9688 13.2031 34.535 12.435 35.252C11.6667 35.969 11.0543 36.8231 10.6354 37.767C10.2164 38.711 10 39.7248 10 40.75C10 41.1642 10.3358 41.5 10.75 41.5H18.25H25.75C26.1642 41.5 26.5 41.1642 26.5 40.75C26.5 39.7248 26.2836 38.711 25.8646 37.767C25.4457 36.8231 24.8333 35.969 24.065 35.252C23.2969 34.535 22.3877 33.9688 21.3906 33.5833C20.3935 33.1978 19.3265 33 18.25 33ZM15.6503 34.9824C16.4732 34.6643 17.3567 34.5 18.25 34.5C19.1433 34.5 20.0268 34.6643 20.8497 34.9824C21.6725 35.3005 22.4169 35.7655 23.0416 36.3485C23.6662 36.9315 24.1586 37.6207 24.4936 38.3755C24.7251 38.8971 24.8785 39.4436 24.9512 40H18.25H11.5488C11.6215 39.4436 11.7749 38.8971 12.0064 38.3755C12.3414 37.6207 12.8338 36.9315 13.4584 36.3485C14.0831 35.7655 14.8275 35.3005 15.6503 34.9824Z" fill="white"/>
</svg>
